{"title":"Daniel Filho - Tempos de Paz AKA Peacetime (2009)","uid":5760617,"size":1559536446,"categoryP":"video","categoryS":"movies","magnet":"?xt=urn:btih:235292f95eecff2afd1e7acc7f0d93ce72a682a7&amp;dn=Daniel+Filho+-+Tempos+de+Paz+AKA+Peacetime+%282009%29&amp;tr=udp%3A%2F%2Ftracker.openbittorrent.com%3A80&amp;tr=udp%3A%2F%2Fopen.demonii.com%3A1337&amp;tr=udp%3A%2F%2Ftracker.coppersurfer.tk%3A6969&amp;tr=udp%3A%2F%2Fexodus.desync.com%3A6969","seeders":0,"leechers":1,"uploader":"mfccorrea","files":2,"time":1281718498,"description":"The whole story takes place on the 18th of April in the year 1945. The battles had ceased in Europe, but Brazil still found itself tecnically at war. The encounter between the interrogator, a customs official and former-torturer for the Political Police of President Vargas and a Polish ex-actor who had lived the horrers of war but was suspected of being a Nazi fugitive, takes place in the Rio de Janeiro port immigration office. The film portrays a critical period of Brazilian history and speaks of Manichaeism and of fighting for life. \n\n   General\n      Complete name : Tempos de Paz .avi\n      Format : AVI\n      Format/Info : Audio Video Interleave\n      File size : 1.45 GiB\n      Duration : 1h 20mn\n      Overall bit rate : 2 578 Kbps\n      Writing application : VirtualDubMod 1.5.10.2 (build 2542/release)\n      Writing library : VirtualDubMod build 2542/release\n   Video #0\n      ID : 0\n      Format : MPEG-4 Visual\n      Format profile : AdvancedSimple@L5\n      Format settings, BVOP : Yes\n      Format settings, QPel : No\n      Format settings, GMC : No warppoints\n      Format settings, Matrix : Custom\n      Muxing mode : Packed bitstream\n      Codec ID : XVID\n      Codec ID/Hint : XviD\n      Duration : 1h 20mn\n      Bit rate : 2 121 Kbps\n      Width : 720 pixels\n      Height : 400 pixels\n      Display aspect ratio : 16:9\n      Frame rate : 23.976 fps\n      Resolution : 24 bits\n      Colorimetry : 4:2:0\n      Scan type : Progressive\n      Bits/(Pixel*Frame) : 0.307\n      Stream size : 1.19 GiB (82%)\n      Writing library : XviD 1.2.1 (UTC 2008-12-04)\n   Audio #1\n      ID : 1\n      Format : AC-3\n      Format/Info : Audio Coding 3\n      Codec ID : 2000\n      Duration : 1h 20mn\n      Bit rate mode : Constant\n      Bit rate : 448 Kbps\n      Channel(s) : 2 channels\n      Channel positions : L R\n      Sampling rate : 48.0 KHz\n      Stream size : 258 MiB (17%)\n      Alignment : Split accross interleaves\n      Interleave, duration : 42 ms (1.00 video frame)\n      Interleave, preload duration : 500 ms\n &lt;a href=&quot;\nhttp://www.imdb.com/title/tt1223932/&quot; rel=&quot;nofollow&quot; target=&quot;_NEW&quot;&gt;\nhttp://www.imdb.com/title/tt1223932/&lt;/a&gt;\n\nPortuguese audio; English subtitles\n\nBlu-ray rip","torrent":{"xt":"urn:btih:235292f95eecff2afd1e7acc7f0d93ce72a682a7","amp;dn":"Daniel+Filho+-+Tempos+de+Paz+AKA+Peacetime+%282009%29","amp;tr":["udp%3A%2F%2Ftracker.openbittorrent.com%3A80","udp%3A%2F%2Fopen.demonii.com%3A1337","udp%3A%2F%2Ftracker.coppersurfer.tk%3A6969","udp%3A%2F%2Fexodus.desync.com%3A6969"],"infoHash":"235292f95eecff2afd1e7acc7f0d93ce72a682a7","infoHashBuffer":{"type":"Buffer","data":[35,82,146,249,94,236,255,42,253,30,122,204,127,13,147,206,114,166,130,167]},"announce":[],"urlList":[]}}